<svg width="37" height="34" viewBox="0 0 37 34" fill="none" xmlns="http://www.w3.org/2000/svg">
<path d="M26.375 0.75C23.3365 0.75 20.4684 2.08984 18.5 4.28221C16.5315 2.08984 13.6635 0.75 10.625 0.75C5.06259 0.75 0.75 5.04618 0.75 10.5913C0.75 13.9868 2.27684 17.0283 4.90827 20.2321C7.46368 23.3433 11.086 26.6368 15.4215 30.5787C15.5451 30.691 15.6692 30.8039 15.794 30.9174L15.7956 30.9188L18.3334 33.1864L18.5 33.3353L18.6666 33.1864L21.2044 30.9188L21.206 30.9174C21.331 30.8037 21.4554 30.6906 21.5792 30.5781C25.9144 26.6364 29.5364 23.3431 32.0917 20.232C34.7231 17.0282 36.25 13.9867 36.25 10.5913C36.25 5.04618 31.9374 0.75 26.375 0.75ZM31.1361 5.82527C32.3731 7.05803 33.0577 8.74859 33.0577 10.5913C33.0577 12.9294 32.0472 15.2435 29.7128 18.1145C27.3057 21.0748 23.659 24.3914 19.4118 28.2531L19.0584 28.5744L19.0568 28.5759L18.5 29.0733L17.9433 28.576L17.9417 28.5745L17.5888 28.2535L17.5887 28.2535C13.3414 24.3918 9.69455 21.075 7.28733 18.1146C4.95281 15.2435 3.94231 12.9294 3.94231 10.5913C3.94231 8.74866 4.62694 7.05801 5.86402 5.82534L5.68756 5.64825L5.86402 5.82534C7.09698 4.59675 8.78583 3.91667 10.625 3.91667C12.7493 3.91667 14.8537 4.89748 16.249 6.54057L18.3094 8.96691L18.5 9.19131L18.6906 8.9669L20.7509 6.54057C22.1463 4.89748 24.2506 3.91667 26.375 3.91667C28.2142 3.91667 29.903 4.59675 31.1361 5.82527Z" stroke="black" stroke-width="0.5"/>
</svg>
