<svg width="37" height="34" viewBox="0 0 37 34" fill="none" xmlns="http://www.w3.org/2000/svg">
<path d="M12 2.5L18.5 6L22.5 2.5L30.5 3.5L34 8.5C33.6667 10.8333 33 15.6 33 16C33 16.4 23.6667 26.1667 19 31C18.3333 30.6667 16.9 30 16.5 30C16.1 30 12.6667 25.3333 11 23C8.33333 20.8333 3 16.4 3 16V8.5L5.5 3.5L12 2.5Z" fill="#829571"/>
<path d="M26.375 1C23.3125 1 20.4252 2.39517 18.5 4.66225C16.5747 2.39517 13.6875 1 10.625 1C5.19983 1 1 5.18508 1 10.5913C1 17.2176 6.94983 22.5369 15.9622 30.7324L18.5 33L21.0378 30.7324C30.0501 22.5368 36 17.2175 36 10.5913C36 5.18508 31.8002 1 26.375 1ZM19.58 28.4381L19.225 28.7608L18.5 29.4086L17.7751 28.7609L17.4206 28.4385C13.1787 24.5817 9.51518 21.2507 7.09337 18.2723C4.74121 15.3796 3.69231 13.0107 3.69231 10.5913C3.69231 8.68583 4.40089 6.93033 5.68756 5.64825C6.96994 4.37042 8.72339 3.66667 10.625 3.66667C12.8238 3.66667 14.9975 4.68058 16.4395 6.37875L18.5 8.80508L20.5604 6.37875C22.0025 4.68058 24.1761 3.66667 26.375 3.66667C28.2767 3.66667 30.0301 4.37042 31.3125 5.64817C32.5991 6.93033 33.3077 8.68575 33.3077 10.5913C33.3077 13.0107 32.2588 15.3795 29.9068 18.2722C27.4851 21.2505 23.8218 24.5813 19.58 28.4381Z" fill="#EFEFEF"/>
<path d="M26.375 0.75C23.3365 0.75 20.4684 2.08984 18.5 4.28221C16.5315 2.08984 13.6635 0.75 10.625 0.75C5.06259 0.75 0.75 5.04618 0.75 10.5913C0.75 13.9868 2.27684 17.0283 4.90827 20.2321C7.46369 23.3433 11.086 26.6368 15.4215 30.5787C15.5451 30.6911 15.6692 30.8039 15.794 30.9174L15.7956 30.9188L18.3334 33.1864L18.5 33.3353L18.6666 33.1864L21.2044 30.9188L21.206 30.9174C21.331 30.8037 21.4554 30.6906 21.5792 30.578C25.9144 26.6364 29.5364 23.3431 32.0917 20.232C34.7231 17.0282 36.25 13.9867 36.25 10.5913C36.25 5.04618 31.9374 0.75 26.375 0.75Z" stroke="#829571" stroke-width="0.5"/>
</svg>
