<svg width="1320" height="257" viewBox="0 0 1320 257" fill="none" xmlns="http://www.w3.org/2000/svg">
<g clip-path="url(#clip0_1046_72)">
<path d="M816.628 253.323C814.93 252.595 813.232 251.625 811.534 249.442C809.836 247.016 809.351 244.591 809.108 243.378V133.5C809.108 133.5 809.108 131.802 808.866 130.589C807.168 119.674 800.376 112.64 796.981 109.002C779.517 90.5677 754.776 89.1124 754.776 89.1124C733.673 87.8996 715.967 97.8444 705.779 108.274C699.716 114.581 694.864 122.585 693.409 125.253C691.226 129.134 686.86 136.653 683.707 147.083C682.979 149.266 682.494 151.449 682.009 153.39V112.155V90.8103L621.37 118.219L622.098 120.645L638.349 114.338C641.987 112.398 646.353 112.883 649.506 115.308C652.66 117.734 653.145 121.13 653.145 123.07V243.621C652.66 245.076 651.689 247.501 649.506 249.927C648.051 251.625 646.353 252.838 645.141 253.565H621.855V256.961H713.541V253.565H689.528C687.83 252.838 686.132 251.867 684.435 249.684C682.737 247.259 682.252 244.833 682.009 243.621V191.956C682.009 178.616 683.707 167.943 684.92 160.909C688.073 145.87 692.682 122.585 710.873 107.062C719.363 99.7848 726.397 98.3295 728.58 97.8444C739.737 95.6614 748.954 100.027 752.35 101.483C776.121 112.64 780.244 144.9 780.487 147.568V243.621C780.002 245.076 779.031 247.501 776.848 249.927C775.393 251.625 773.695 252.838 772.482 253.565H749.197V256.961H840.883V253.565H816.87L816.628 253.323Z" fill="black"/>
<path d="M583.046 41.3292C579.892 42.5419 574.071 45.4526 569.22 51.7591C561.701 60.9762 561.216 70.921 561.216 74.3168C560.73 70.4359 559.275 60.9762 551.998 52.2442C547.147 46.4228 541.569 43.0271 538.173 41.5717C541.326 40.1164 546.662 37.2057 551.271 31.6269C558.547 22.8949 559.76 13.4352 560.003 9.79688C560.488 13.6778 562.186 22.4098 568.977 30.6567C574.071 36.7206 579.65 39.8738 583.046 41.3292Z" fill="black"/>
<path d="M1298.83 158.969C1291.79 152.662 1284.03 148.781 1277.73 145.628C1273.36 143.445 1269.48 141.747 1266.08 140.534H1319.45C1319.45 140.534 1319.45 139.564 1319.2 138.836C1317.51 134.713 1314.6 129.134 1310.23 123.07C1305.86 117.006 1294.46 101.725 1273.36 93.9636C1252.99 86.4443 1235.04 89.5976 1227.52 91.538C1203.26 97.6019 1189.68 113.611 1185.8 118.462C1180.7 124.526 1177.31 130.832 1174.4 137.139C1163 162.849 1167.36 187.59 1168.09 190.501C1173.43 216.697 1191.38 242.165 1217.33 252.11C1233.34 258.174 1248.86 256.961 1254.44 256.476C1271.66 255.021 1283.79 248.714 1287.43 247.016C1296.65 242.165 1306.35 237.072 1312.9 225.671C1322.84 208.693 1318.48 190.743 1317.51 187.105C1313.38 172.067 1303.44 163.335 1298.83 159.211V158.969ZM1190.41 133.015C1192.59 125.496 1195.01 117.249 1202.53 110.215C1215.87 97.8445 1234.31 99.7849 1238.43 100.513C1254.44 102.696 1264.63 112.883 1272.15 120.402C1278.45 126.466 1282.34 132.53 1285.25 137.139C1253.47 137.139 1221.7 137.139 1189.68 137.139C1189.92 135.683 1189.92 134.47 1190.41 133.015ZM1313.14 216.697C1306.59 234.404 1290.34 241.68 1286.22 243.621C1275.54 248.472 1266.33 248.229 1264.14 248.229C1241.34 247.744 1225.33 230.765 1215.39 220.093C1209.33 213.786 1198.41 201.901 1192.35 182.739C1190.41 176.675 1185.8 160.181 1189.19 140.777H1245.47C1251.29 141.505 1257.59 142.475 1264.63 144.9C1275.54 148.539 1298.59 156.3 1309.5 178.373C1311.68 182.739 1319.69 198.99 1313.14 216.939V216.697Z" fill="black"/>
<path d="M1146.26 253.323C1144.56 252.595 1142.86 251.625 1141.17 249.442C1139.47 247.017 1138.98 244.591 1138.74 243.378V200.203V186.378C1138.74 178.373 1138.26 174.25 1136.07 170.126C1135.35 168.428 1132.68 163.82 1127.1 160.424C1125.16 159.211 1122.01 157.756 1116.18 157.028C1103.57 155.33 1100.42 158.969 1088.53 157.271C1079.32 155.816 1076.4 152.905 1075.19 151.45C1072.52 148.054 1072.28 144.415 1072.28 143.688C1072.28 137.866 1076.16 133.743 1077.37 132.288C1079.07 130.347 1081.74 128.407 1096.54 124.526C1104.54 122.585 1108.18 121.858 1115.7 119.19C1118.12 118.462 1121.76 117.007 1125.89 114.338C1128.31 112.883 1130.49 111.428 1132.68 108.76C1136.07 104.636 1137.04 100.513 1137.53 98.0872C1138.26 94.934 1138.26 91.2957 1138.26 88.8701C1138.26 87.8999 1138.26 86.9296 1138.26 86.202V26.0481V0.822266L1077.62 28.2311L1078.34 30.6567L1094.6 24.3502C1098.23 22.4098 1102.6 22.8949 1105.75 25.3204C1108.66 27.746 1109.39 30.8992 1109.39 32.8397V83.0488C1109.39 85.7169 1109.39 89.5978 1109.39 93.9638C1108.91 104.394 1108.18 106.092 1107.45 107.062C1105.27 110.7 1101.63 112.155 1096.78 114.338C1091.69 116.521 1090.23 115.794 1084.65 118.219C1082.71 118.947 1079.32 120.402 1076.65 122.585C1071.31 126.709 1065.97 134.956 1066.94 144.415C1068.16 154.845 1076.65 160.909 1080.53 163.577C1082.95 165.275 1084.89 166.245 1086.83 166.973C1097.75 172.067 1102.12 170.126 1105.75 174.492C1108.66 178.131 1109.15 183.467 1109.15 185.165C1109.15 185.65 1109.15 186.135 1109.15 192.199V197.778V243.136C1108.66 244.591 1107.69 247.017 1105.51 249.685C1104.06 251.383 1102.36 252.595 1101.15 253.323H1077.86V256.719H1169.55V253.323H1145.29H1146.26Z" fill="black"/>
<path d="M1045.84 253.323C1040.99 250.655 1035.9 247.26 1030.56 242.651C1024.74 237.557 1020.13 232.221 1016.98 227.855C1000.49 202.387 983.749 177.161 967.255 151.692C975.259 137.382 983.021 123.071 991.025 108.76C992.723 106.092 996.119 101.726 1001.46 98.3301C1007.76 94.2067 1014.07 93.2365 1018.43 92.9939H1044.39V89.5981C1013.83 89.5981 983.264 89.5981 952.702 89.5981V92.9939H974.532C976.715 93.2365 980.353 94.4492 983.021 97.6025C987.872 103.424 985.689 110.701 985.689 111.186L918.016 233.676V196.808V186.135C918.016 178.131 917.531 174.008 915.348 169.884C914.62 168.186 911.952 163.578 906.373 160.182C904.433 158.969 901.28 157.514 895.458 156.786C882.845 155.088 879.692 158.727 867.807 157.029C858.59 155.573 855.679 152.663 854.466 151.207C851.798 147.812 851.556 144.173 851.556 143.446C851.556 137.624 855.437 133.501 856.649 132.045C858.347 130.105 861.015 128.165 875.811 124.284C883.816 122.343 887.454 121.616 894.973 118.947C897.399 118.22 901.037 116.764 905.161 114.096C907.586 112.641 909.769 111.186 911.952 108.517C915.348 104.394 916.318 100.271 916.803 97.845C917.288 95.4195 917.531 91.5386 917.531 88.6279V84.9896C918.259 65.5851 918.259 46.6657 917.531 27.7464C917.531 18.7718 917.531 9.7972 917.531 0.580078C897.399 10.2823 877.024 19.9846 856.892 29.6868L857.62 32.1124L873.871 25.8059C877.509 23.8655 881.875 24.3506 885.028 26.7761C887.939 29.2017 888.667 32.3549 888.667 34.2954V82.564C888.667 85.2321 888.667 89.113 888.667 93.7216C888.182 104.151 887.454 105.849 886.726 106.82C884.543 110.458 880.905 111.913 876.054 114.096C870.96 116.279 869.505 115.552 863.926 117.977C861.986 118.705 858.59 120.16 855.922 122.343C850.586 126.467 845.249 134.714 846.219 144.173C847.432 154.603 855.922 160.667 859.803 163.335C862.228 165.033 864.169 166.003 866.109 166.731C877.024 171.825 881.39 169.884 885.028 174.25C887.939 177.889 888.424 183.225 888.424 184.923C888.424 185.408 888.424 185.893 888.424 191.957V198.021V242.893C887.939 244.349 886.969 246.774 884.786 249.2C883.331 250.898 881.633 252.111 880.42 252.838H857.135V256.234H948.821V252.838H924.808C923.11 252.111 921.412 251.14 919.714 248.957C918.016 246.532 917.531 244.106 917.288 242.893V240.468C928.203 220.578 939.118 200.689 950.276 180.799C961.434 197.05 972.349 213.059 983.506 229.31C991.996 241.681 985.447 248.715 983.991 250.898C983.506 251.626 982.778 252.111 982.051 252.838H971.378V256.234H1063.06V252.838H1045.36L1045.84 253.323Z" fill="black"/>
<path d="M3.8219 9.3125V74.3175C5.51979 63.8876 9.88581 44.9682 25.4094 30.6574C43.6011 13.9211 66.1588 13.9211 103.027 14.1636C106.181 14.1636 108.849 14.1636 111.759 14.1636C104.24 14.1636 96.4783 14.1636 88.959 14.1636V88.1432C88.959 90.8113 88.959 92.9943 88.959 94.2071C88.959 100.756 88.959 103.667 87.2612 107.063V107.548C84.8356 111.186 81.1973 112.641 76.3461 114.824C71.2525 117.007 69.7971 116.28 64.2183 118.705C62.2779 119.433 58.8821 120.888 56.214 123.071C50.8778 127.195 45.5415 135.442 46.5118 144.901C47.7245 155.331 56.214 161.395 60.0949 164.063C62.5204 165.761 64.4609 166.731 66.4013 167.459C77.3164 172.553 81.6824 170.612 85.3207 174.978C88.2314 178.617 88.7165 183.953 88.7165 185.651V243.379C88.2314 244.834 87.2611 247.26 85.0781 249.685C83.6228 251.383 81.9249 252.596 80.7121 253.324H57.4268V256.72H149.113V253.324H125.1C123.402 252.596 121.704 251.626 120.006 249.443C118.308 247.017 117.823 244.592 117.581 243.379V200.204V186.378C117.581 178.374 117.096 174.251 114.913 170.127C114.185 168.429 111.517 163.821 105.938 160.425C103.998 159.212 100.844 157.757 95.0229 157.029C82.41 155.331 79.2568 158.97 67.3716 157.272C58.1544 155.816 55.2438 152.906 54.031 151.45C51.3629 148.055 51.1203 144.416 51.1203 143.689C51.1203 137.867 55.0012 133.744 56.214 132.288C57.9119 130.348 60.58 128.407 75.3759 124.527C83.3803 122.586 87.0186 121.858 94.5378 119.19C96.9634 118.463 100.602 117.007 104.725 114.339C107.151 112.884 109.334 111.429 111.517 108.76C114.913 104.637 115.883 100.514 116.368 98.088C116.853 95.4199 117.096 93.2369 117.096 88.8709C117.096 87.4155 117.096 86.4453 117.096 84.99V14.4062C146.445 14.8913 166.577 17.0743 182.828 32.5979C196.896 46.181 201.262 63.4025 202.96 73.8324V9.3125H3.8219Z" fill="black"/>
<path d="M580.62 253.323C580.62 253.323 578.194 252.595 577.224 251.867C575.526 250.654 575.041 249.684 574.799 248.957V223.973C574.799 215.969 574.071 211.846 572.131 207.722C571.403 206.024 568.735 201.416 563.156 198.02C561.216 196.807 558.062 195.352 552.241 194.624C539.628 192.926 536.475 196.564 524.59 194.867C515.372 193.411 512.462 190.501 511.249 189.045C508.581 185.649 508.338 182.011 508.338 181.283C508.338 175.462 512.219 171.339 513.432 169.883C515.13 167.943 517.798 166.002 532.594 162.122C540.598 160.181 544.237 159.453 551.756 156.785C554.181 156.058 557.82 154.602 561.943 151.934C564.369 150.479 566.552 149.024 568.735 146.355C572.131 142.232 573.101 137.623 573.586 135.683C574.071 133.742 574.071 132.045 574.314 128.649C574.314 126.708 574.314 125.01 574.314 123.313V89.8398C554.181 99.057 533.807 108.274 513.675 117.491L514.402 119.917C519.738 117.734 525.317 115.551 530.653 113.61C534.292 111.67 538.658 112.155 541.811 114.581C544.479 116.764 545.207 119.674 545.449 121.615C545.449 124.283 545.449 127.679 545.449 131.802C544.964 142.232 544.237 143.93 543.509 144.9C541.326 148.538 537.688 149.994 532.836 152.177C527.743 154.36 526.287 153.632 520.709 156.058C518.768 156.785 515.372 158.241 512.704 160.424C507.368 164.547 502.032 172.794 503.002 182.254C504.215 192.684 512.704 198.747 516.585 201.416C519.011 203.113 520.951 204.084 522.892 204.811C533.807 209.905 538.173 207.965 541.811 212.331C544.722 215.969 545.207 221.305 545.207 223.003C545.207 223.488 545.207 223.973 545.207 230.037V236.101V248.714C545.207 248.714 543.751 250.412 542.539 251.382C541.326 252.11 540.356 252.595 539.385 253.08C530.896 253.08 522.407 253.08 513.917 253.08V256.476H605.603V253.08C597.114 253.08 588.382 253.08 579.892 253.08L580.62 253.323Z" fill="black"/>
<path d="M523.377 89.8398C492.815 89.8398 462.253 89.8398 431.691 89.8398V93.2356H457.645C459.585 94.2058 461.768 95.6612 463.708 98.3293C467.832 104.151 467.104 110.457 466.862 111.912C462.496 125.496 458.372 139.079 454.006 152.662C452.551 155.815 449.883 159.939 445.517 161.394C438.725 163.577 433.874 156.543 426.84 158.483C421.504 159.939 417.38 166.002 416.895 171.581C415.925 181.283 426.355 184.922 428.295 195.109C429.266 200.445 427.325 207.965 418.108 218.152C407.678 182.739 397.006 147.568 386.576 112.155C386.333 111.185 384.15 104.393 388.031 98.3293C389.729 95.6612 391.669 94.2058 393.61 93.2356H411.316V89.8398C380.754 89.8398 350.192 89.8398 319.63 89.8398V93.2356H337.579C340.49 94.4484 343.643 96.1463 347.039 99.2995C352.618 104.393 354.801 110.215 355.771 112.883L359.409 124.768C346.311 166.488 333.456 208.207 320.358 249.927L279.366 112.398C279.366 112.398 276.94 104.636 280.821 98.5719C282.519 95.9037 284.46 94.4484 286.4 93.4782H301.196V90.0824C270.634 90.0824 240.072 90.0824 209.51 90.0824V93.4782H230.37C233.28 94.691 236.433 96.3889 239.829 99.5421C245.408 104.636 247.591 110.457 248.561 113.125C263.115 161.151 277.911 209.177 292.464 257.204H322.541V255.991C335.154 214.271 348.252 172.551 361.107 130.832C373.963 173.037 386.818 214.999 399.674 257.204H429.751L423.444 235.859C426.355 230.522 428.78 225.671 429.993 222.033C432.904 213.543 435.815 204.569 432.661 196.322C430.963 191.713 428.295 187.59 428.295 187.59C425.627 182.981 424.172 182.254 423.202 179.1C422.716 177.403 421.261 173.279 423.202 169.398C425.142 165.517 429.023 164.062 429.266 164.062C435.572 161.879 439.453 167.215 446.73 165.032C448.913 164.305 450.368 163.334 451.096 162.849C454.734 160.181 456.189 157.028 457.159 154.845L457.645 153.39C462.253 138.836 466.619 124.283 471.228 109.729C472.198 107.304 474.138 103.423 478.019 100.027C482.143 96.3889 486.024 94.691 488.934 93.9633H523.377V90.5675V89.8398Z" fill="black"/>
</g>
<defs>
<clipPath id="clip0_1046_72">
<rect width="1320" height="257" fill="white"/>
</clipPath>
</defs>
</svg>
