<svg width="144" height="28" viewBox="0 0 144 28" fill="none" xmlns="http://www.w3.org/2000/svg">
<g clip-path="url(#clip0_1117_4359)">
<path d="M88.284 27.3864C88.1004 27.3077 87.9169 27.2029 87.7333 26.9669C87.5498 26.7046 87.4973 26.4424 87.4711 26.3113V14.4326C87.4711 14.4326 87.4711 14.249 87.4449 14.1179C87.2613 12.9379 86.5271 12.1775 86.16 11.7842C84.272 9.79126 81.5973 9.63393 81.5973 9.63393C79.316 9.50282 77.4017 10.5779 76.3004 11.7055C75.6448 12.3873 75.1204 13.2526 74.9631 13.541C74.7271 13.9606 74.2551 14.7735 73.9142 15.9011C73.8355 16.1371 73.7831 16.3731 73.7306 16.5828V12.125V9.81748L67.175 12.7806L67.2537 13.0428L69.0106 12.361C69.4039 12.1513 69.8759 12.2037 70.2168 12.4659C70.5577 12.7282 70.6102 13.0953 70.6102 13.305V26.3375C70.5577 26.4948 70.4528 26.7571 70.2168 27.0193C70.0595 27.2029 69.8759 27.334 69.7448 27.4126H67.2275V27.7797H77.1395V27.4126H74.5435C74.36 27.334 74.1764 27.2291 73.9928 26.9931C73.8093 26.7308 73.7568 26.4686 73.7306 26.3375V20.7522C73.7306 19.3099 73.9142 18.1562 74.0453 17.3957C74.3862 15.7699 74.8844 13.2526 76.8511 11.5744C77.7689 10.7877 78.5293 10.6304 78.7653 10.5779C79.9715 10.3419 80.968 10.8139 81.3351 10.9713C83.9049 12.1775 84.3506 15.6651 84.3769 15.9535V26.3375C84.3244 26.4948 84.2195 26.7571 83.9835 27.0193C83.8262 27.2029 83.6426 27.334 83.5115 27.4126H80.9942V27.7797H90.9062V27.4126H88.3102L88.284 27.3864Z" fill="black"/>
<path d="M63.0318 4.46749C62.6909 4.5986 62.0616 4.91327 61.5371 5.59505C60.7242 6.59149 60.6718 7.66661 60.6718 8.03372C60.6193 7.61416 60.462 6.59149 59.6753 5.64749C59.1509 5.01816 58.5478 4.65105 58.1807 4.49371C58.5216 4.33638 59.0984 4.02171 59.5967 3.4186C60.3833 2.4746 60.5144 1.45193 60.5407 1.05859C60.5931 1.47815 60.7767 2.42215 61.5109 3.31371C62.0616 3.96927 62.6647 4.31016 63.0318 4.46749Z" fill="black"/>
<path d="M140.414 17.1863C139.653 16.5045 138.814 16.085 138.133 15.7441C137.661 15.5081 137.241 15.3245 136.874 15.1934H142.643C142.643 15.1934 142.643 15.0885 142.617 15.0098C142.433 14.5641 142.118 13.961 141.646 13.3054C141.174 12.6498 139.942 10.9978 137.661 10.1587C135.458 9.34583 133.517 9.68672 132.705 9.8965C130.082 10.5521 128.614 12.2827 128.194 12.8072C127.644 13.4627 127.276 14.1445 126.962 14.8263C125.729 17.6059 126.201 20.2805 126.28 20.5952C126.857 23.4272 128.797 26.1805 131.603 27.2556C133.334 27.9112 135.012 27.7801 135.615 27.7276C137.477 27.5703 138.788 26.8885 139.181 26.705C140.178 26.1805 141.227 25.6299 141.935 24.3974C143.01 22.5619 142.538 20.6214 142.433 20.2281C141.987 18.6023 140.912 17.6583 140.414 17.2125V17.1863ZM128.692 14.3805C128.928 13.5676 129.191 12.6761 130.004 11.9156C131.446 10.5783 133.439 10.7881 133.885 10.8667C135.615 11.1027 136.717 12.2041 137.529 13.017C138.211 13.6725 138.631 14.3281 138.945 14.8263C135.51 14.8263 132.075 14.8263 128.614 14.8263C128.64 14.669 128.64 14.5378 128.692 14.3805ZM141.961 23.4272C141.253 25.3414 139.496 26.1281 139.05 26.3379C137.897 26.8623 136.9 26.8361 136.664 26.8361C134.199 26.7836 132.469 24.9481 131.393 23.7943C130.738 23.1125 129.558 21.8276 128.902 19.7561C128.693 19.1005 128.194 17.3174 128.561 15.2196H134.645C135.274 15.2983 135.956 15.4032 136.717 15.6654C137.897 16.0587 140.388 16.8978 141.568 19.2841C141.804 19.7561 142.669 21.513 141.961 23.4534V23.4272Z" fill="black"/>
<path d="M123.92 27.3863C123.737 27.3076 123.553 27.2027 123.369 26.9667C123.186 26.7045 123.133 26.4423 123.107 26.3111V21.6436V20.1489C123.107 19.2836 123.055 18.8378 122.819 18.392C122.74 18.2085 122.452 17.7102 121.849 17.3431C121.639 17.212 121.298 17.0547 120.669 16.976C119.305 16.7925 118.964 17.1858 117.679 17.0022C116.683 16.8449 116.368 16.5302 116.237 16.3729C115.949 16.0058 115.922 15.6125 115.922 15.5338C115.922 14.9045 116.342 14.4587 116.473 14.3013C116.657 14.0916 116.945 13.8818 118.545 13.4622C119.41 13.2524 119.803 13.1738 120.616 12.8853C120.878 12.8067 121.272 12.6493 121.717 12.3609C121.98 12.2036 122.216 12.0462 122.452 11.7578C122.819 11.312 122.924 10.8662 122.976 10.604C123.055 10.2631 123.055 9.86978 123.055 9.60755C123.055 9.50266 123.055 9.39777 123.055 9.31911V2.81598V0.0888672L116.499 3.05198L116.578 3.31421L118.335 2.63243C118.728 2.42265 119.2 2.47509 119.541 2.73732C119.856 2.99954 119.934 3.34043 119.934 3.55021V8.97822C119.934 9.26666 119.934 9.68622 119.934 10.1582C119.882 11.2858 119.803 11.4693 119.725 11.5742C119.489 11.9676 119.095 12.1249 118.571 12.3609C118.02 12.5969 117.863 12.5182 117.26 12.7804C117.05 12.8591 116.683 13.0164 116.394 13.2524C115.817 13.6982 115.241 14.5898 115.345 15.6125C115.477 16.74 116.394 17.3956 116.814 17.684C117.076 17.8676 117.286 17.9725 117.496 18.0511C118.676 18.6018 119.148 18.392 119.541 18.864C119.856 19.2574 119.908 19.8342 119.908 20.0178C119.908 20.0702 119.908 20.1227 119.908 20.7782V21.3814V26.2849C119.856 26.4423 119.751 26.7045 119.515 26.9929C119.357 27.1765 119.174 27.3076 119.043 27.3863H116.525V27.7534H126.437V27.3863H123.815H123.92Z" fill="black"/>
<path d="M113.064 27.3861C112.54 27.0977 111.989 26.7305 111.412 26.2323C110.783 25.6817 110.285 25.1048 109.944 24.6328C108.161 21.8794 106.351 19.1523 104.568 16.399C105.433 14.8519 106.272 13.3047 107.138 11.7576C107.321 11.4692 107.689 10.9972 108.265 10.6301C108.947 10.1843 109.629 10.0794 110.101 10.0532H112.907V9.68607C109.603 9.68607 106.299 9.68607 102.995 9.68607V10.0532H105.355C105.591 10.0794 105.984 10.2105 106.272 10.5514C106.797 11.1807 106.561 11.9674 106.561 12.0199L99.2449 25.2621V21.2763V20.1225C99.2449 19.2572 99.1925 18.8114 98.9565 18.3656C98.8778 18.1821 98.5894 17.6839 97.9863 17.3168C97.7765 17.1856 97.4356 17.0283 96.8063 16.9496C95.4427 16.7661 95.1018 17.1594 93.8169 16.9759C92.8205 16.8185 92.5058 16.5039 92.3747 16.3465C92.0862 15.9794 92.06 15.5861 92.06 15.5074C92.06 14.8781 92.4796 14.4323 92.6107 14.275C92.7942 14.0652 93.0827 13.8554 94.6823 13.4359C95.5476 13.2261 95.9409 13.1474 96.7538 12.859C97.016 12.7803 97.4094 12.623 97.8551 12.3345C98.1174 12.1772 98.3534 12.0199 98.5894 11.7314C98.9565 11.2856 99.0614 10.8399 99.1138 10.5776C99.1663 10.3154 99.1925 9.89585 99.1925 9.58118V9.18785C99.2711 7.09007 99.2711 5.04473 99.1925 2.99939C99.1925 2.02917 99.1925 1.05895 99.1925 0.0625C97.016 1.11139 94.8134 2.16028 92.6369 3.20917L92.7156 3.4714L94.4725 2.78962C94.8658 2.57984 95.3378 2.63228 95.6787 2.89451C95.9934 3.15673 96.072 3.49762 96.072 3.7074V8.92563C96.072 9.21407 96.072 9.63363 96.072 10.1319C96.0196 11.2594 95.9409 11.443 95.8623 11.5479C95.6263 11.9412 95.2329 12.0985 94.7085 12.3345C94.1578 12.5705 94.0005 12.4919 93.3974 12.7541C93.1876 12.8327 92.8205 12.9901 92.532 13.2261C91.9551 13.6719 91.3782 14.5634 91.4831 15.5861C91.6142 16.7136 92.532 17.3692 92.9516 17.6576C93.2138 17.8412 93.4236 17.9461 93.6334 18.0248C94.8134 18.5754 95.2854 18.3656 95.6787 18.8376C95.9934 19.231 96.0458 19.8079 96.0458 19.9914C96.0458 20.0439 96.0458 20.0963 96.0458 20.7519V21.4074V26.2585C95.9934 26.4159 95.8885 26.6781 95.6525 26.9403C95.4951 27.1239 95.3116 27.255 95.1805 27.3337H92.6631V27.7008H102.575V27.3337H99.9792C99.7956 27.255 99.612 27.1501 99.4285 26.9141C99.2449 26.6519 99.1925 26.3897 99.1663 26.2585V25.9963C100.346 23.8461 101.526 21.6959 102.732 19.5456C103.939 21.3025 105.119 23.0332 106.325 24.7901C107.243 26.1274 106.535 26.8879 106.377 27.1239C106.325 27.2025 106.246 27.255 106.168 27.3337H105.014V27.7008H114.926V27.3337H113.012L113.064 27.3861Z" fill="black"/>
<path d="M0.41333 1.00684V8.0344C0.596886 6.90685 1.06889 4.86151 2.74711 3.3144C4.71378 1.50506 7.15245 1.50506 11.1382 1.53128C11.4791 1.53128 11.7676 1.53128 12.0822 1.53128C11.2693 1.53128 10.4302 1.53128 9.61734 1.53128V9.52907C9.61734 9.81752 9.61734 10.0535 9.61734 10.1846C9.61734 10.8926 9.61734 11.2073 9.43379 11.5744V11.6269C9.17157 12.0202 8.77823 12.1775 8.25379 12.4135C7.70312 12.6495 7.54579 12.5709 6.94267 12.8331C6.7329 12.9117 6.36579 13.0691 6.07734 13.3051C5.50045 13.7509 4.92356 14.6424 5.02845 15.6651C5.15956 16.7926 6.07734 17.4482 6.4969 17.7366C6.75912 17.9202 6.9689 18.0251 7.17868 18.1038C8.35868 18.6544 8.83068 18.4446 9.22401 18.9166C9.53868 19.31 9.59112 19.8869 9.59112 20.0704V26.3113C9.53868 26.4687 9.43379 26.7309 9.19779 26.9931C9.04045 27.1767 8.8569 27.3078 8.72579 27.3864H6.20845V27.7535H16.1205V27.3864H13.5245C13.3409 27.3078 13.1574 27.2029 12.9738 26.9669C12.7902 26.7047 12.7378 26.4424 12.7116 26.3113V21.6438V20.1491C12.7116 19.2838 12.6591 18.838 12.4231 18.3922C12.3445 18.2086 12.056 17.7104 11.4529 17.3433C11.2431 17.2122 10.9022 17.0549 10.2729 16.9762C8.90934 16.7926 8.56846 17.186 7.28356 17.0024C6.28712 16.8451 5.97245 16.5304 5.84134 16.3731C5.55289 16.006 5.52667 15.6126 5.52667 15.534C5.52667 14.9046 5.94623 14.4589 6.07734 14.3015C6.2609 14.0918 6.54934 13.882 8.1489 13.4624C9.01423 13.2526 9.40757 13.174 10.2205 12.8855C10.4827 12.8069 10.876 12.6495 11.3218 12.3611C11.584 12.2037 11.82 12.0464 12.056 11.758C12.4231 11.3122 12.528 10.8664 12.5805 10.6042C12.6329 10.3157 12.6591 10.0797 12.6591 9.60774C12.6591 9.45041 12.6591 9.34552 12.6591 9.18818V1.5575C15.832 1.60995 18.0085 1.84595 19.7654 3.52417C21.2863 4.99262 21.7583 6.8544 21.9418 7.98196V1.00684H0.41333Z" fill="black"/>
<path d="M62.7698 27.3867C62.7698 27.3867 62.5075 27.308 62.4027 27.2294C62.2191 27.0983 62.1667 26.9934 62.1404 26.9147V24.2138C62.1404 23.3485 62.0618 22.9027 61.852 22.4569C61.7733 22.2734 61.4849 21.7751 60.8818 21.408C60.672 21.2769 60.3311 21.1196 59.7018 21.0409C58.3382 20.8574 57.9973 21.2507 56.7124 21.0671C55.716 20.9098 55.4013 20.5951 55.2702 20.4378C54.9818 20.0707 54.9555 19.6774 54.9555 19.5987C54.9555 18.9694 55.3751 18.5236 55.5062 18.3662C55.6898 18.1565 55.9782 17.9467 57.5778 17.5271C58.4431 17.3173 58.8364 17.2387 59.6493 16.9502C59.9115 16.8716 60.3049 16.7142 60.7507 16.4258C61.0129 16.2685 61.2489 16.1111 61.4849 15.8227C61.852 15.3769 61.9569 14.8787 62.0093 14.6689C62.0618 14.4591 62.0618 14.2756 62.088 13.9085C62.088 13.6987 62.088 13.5151 62.088 13.3316V9.71289C59.9115 10.7093 57.7089 11.7058 55.5324 12.7022L55.6111 12.9645C56.188 12.7285 56.7911 12.4925 57.368 12.2827C57.7613 12.0729 58.2333 12.1253 58.5742 12.3876C58.8627 12.6236 58.9413 12.9382 58.9675 13.148C58.9675 13.4365 58.9675 13.8036 58.9675 14.2493C58.9151 15.3769 58.8364 15.5605 58.7578 15.6653C58.5218 16.0587 58.1284 16.216 57.604 16.452C57.0533 16.688 56.896 16.6093 56.2929 16.8716C56.0831 16.9502 55.716 17.1076 55.4275 17.3436C54.8506 17.7894 54.2738 18.6809 54.3786 19.7036C54.5098 20.8311 55.4275 21.4867 55.8471 21.7751C56.1093 21.9587 56.3191 22.0636 56.5289 22.1422C57.7089 22.6929 58.1809 22.4831 58.5742 22.9551C58.8889 23.3485 58.9413 23.9254 58.9413 24.1089C58.9413 24.1614 58.9413 24.2138 58.9413 24.8694V25.5249V26.8885C58.9413 26.8885 58.784 27.072 58.6529 27.1769C58.5218 27.2556 58.4169 27.308 58.312 27.3605C57.3942 27.3605 56.4764 27.3605 55.5586 27.3605V27.7276H65.4707V27.3605C64.5529 27.3605 63.6089 27.3605 62.6911 27.3605L62.7698 27.3867Z" fill="black"/>
<path d="M56.5813 9.71289C53.2773 9.71289 49.9733 9.71289 46.6693 9.71289V10.08H49.475C49.6848 10.1849 49.9208 10.3422 50.1306 10.6307C50.5764 11.26 50.4977 11.9418 50.4715 12.0991C49.9995 13.5676 49.5537 15.036 49.0817 16.5045C48.9244 16.8453 48.6359 17.2911 48.1639 17.4485C47.4297 17.6845 46.9053 16.924 46.1448 17.1338C45.5679 17.2911 45.1221 17.9467 45.0697 18.5498C44.9648 19.5987 46.0924 19.992 46.3021 21.0934C46.407 21.6702 46.1973 22.4831 45.2008 23.5845C44.0733 19.756 42.9195 15.9538 41.7919 12.1253C41.7657 12.0205 41.5297 11.2862 41.9493 10.6307C42.1328 10.3422 42.3426 10.1849 42.5524 10.08H44.4666V9.71289C41.1626 9.71289 37.8586 9.71289 34.5546 9.71289V10.08H36.495C36.8097 10.2111 37.1506 10.3947 37.5177 10.7356C38.1208 11.2862 38.3568 11.9156 38.4617 12.204L38.855 13.4889C37.439 17.9991 36.0492 22.5094 34.6332 27.0196L30.2017 12.1516C30.2017 12.1516 29.9395 11.3124 30.359 10.6569C30.5426 10.3684 30.7523 10.2111 30.9621 10.1062H32.5617V9.73911C29.2577 9.73911 25.9537 9.73911 22.6497 9.73911V10.1062H24.9048C25.2194 10.2373 25.5603 10.4209 25.9274 10.7618C26.5306 11.3124 26.7666 11.9418 26.8714 12.2302C28.4448 17.4222 30.0443 22.6142 31.6177 27.8063H34.8692V27.6751C36.2328 23.1649 37.6488 18.6547 39.0386 14.1445C40.4284 18.7071 41.8181 23.2436 43.2079 27.8063H46.4595L45.7777 25.4987C46.0924 24.9218 46.3546 24.3974 46.4857 24.004C46.8004 23.0863 47.115 22.116 46.7742 21.2245C46.5906 20.7262 46.3021 20.2805 46.3021 20.2805C46.0137 19.7822 45.8564 19.7036 45.7515 19.3627C45.699 19.1791 45.5417 18.7334 45.7515 18.3138C45.9613 17.8942 46.3808 17.7369 46.407 17.7369C47.0888 17.5009 47.5084 18.0778 48.295 17.8418C48.531 17.7631 48.6884 17.6582 48.767 17.6058C49.1604 17.3173 49.3177 16.9765 49.4226 16.7405L49.475 16.5831C49.9733 15.0098 50.4453 13.4365 50.9435 11.8631C51.0484 11.6009 51.2582 11.1813 51.6777 10.8142C52.1235 10.4209 52.543 10.2373 52.8577 10.1587H56.5813V9.79156V9.71289Z" fill="black"/>
</g>
<defs>
<clipPath id="clip0_1117_4359">
<rect width="144" height="27.7575" fill="white"/>
</clipPath>
</defs>
</svg>
