<svg width="28" height="25" viewBox="0 0 28 25" fill="none" xmlns="http://www.w3.org/2000/svg">
<path d="M27.2608 0.467862C26.675 -0.00917862 25.8699 -0.131935 25.1644 0.148183L1.27497 9.61962C0.224106 10.0444 -0.277117 11.2254 0.155421 12.2573C0.379136 12.791 0.824451 13.2052 1.37914 13.3957L6.53281 15.1552L9.32579 24.2238C9.33141 24.2423 9.34866 24.2535 9.35591 24.2713C9.3848 24.3436 9.42703 24.4102 9.48034 24.4676C9.50019 24.4907 9.52184 24.5123 9.54495 24.5323C9.61453 24.5891 9.69534 24.631 9.78226 24.6555C9.79552 24.6593 9.80439 24.6709 9.8179 24.6739L9.82572 24.6736L9.82962 24.6752C9.87414 24.685 9.91955 24.6897 9.96504 24.6893C10.0245 24.6872 10.0835 24.6771 10.1402 24.6593C10.1512 24.6563 10.1622 24.6571 10.173 24.6536C10.2697 24.6201 10.3571 24.5651 10.4283 24.4927C10.4366 24.4845 10.4493 24.4831 10.4572 24.4744L14.4755 20.1204L20.3375 24.578C20.6937 24.8515 21.1328 25.0001 21.5849 25C22.5628 24.9998 23.4068 24.3272 23.6083 23.3875L27.9587 2.41407C28.1094 1.68855 27.8411 0.940507 27.2608 0.467862ZM10.7841 16.875L9.84118 21.3752L7.8747 14.9881L17.6279 10.0006L10.9651 16.5439C10.873 16.6344 10.8101 16.7496 10.7841 16.875ZM22.3024 23.1241C22.2513 23.3652 22.0762 23.5628 21.8402 23.6458C21.6095 23.733 21.3491 23.6941 21.1553 23.5435L14.8037 18.7138C14.5287 18.5048 14.1362 18.5387 13.9026 18.7918L11.1084 21.8194L12.0498 17.3315L21.6345 7.91765C21.8949 7.66231 21.8954 7.24801 21.6353 6.99226C21.4297 6.78983 21.114 6.74203 20.8558 6.87422L7.03794 13.9406L1.81534 12.1579C1.53067 12.0659 1.33707 11.8064 1.33357 11.5121C1.31981 11.2158 1.49844 10.9433 1.77888 10.8331L25.6644 1.36296C25.9139 1.25899 26.2019 1.30254 26.4079 1.47549C26.613 1.63805 26.7072 1.90026 26.6514 2.15321L22.3024 23.1241Z" fill="black"/>
</svg>
